<?xml version="1.0" encoding="utf-8"?>
<svg width="600" height="600" viewBox="0 0 600 600" fill="none" xmlns="http://www.w3.org/2000/svg">
  <title>Ecliptix Emblem — Gradient Mesh (Clean, No Glow)</title>

  <defs>
    <linearGradient id="em-main" x1="0.1" y1="0" x2="0.9" y2="1">
      <stop offset="0" stop-color="#FFFDCE"/>
      <stop offset="0.15" stop-color="#ffe085"/>
      <stop offset="0.3" stop-color="#FF9A3E"/>
      <stop offset="0.5" stop-color="#FF6D00"/>
      <stop offset="0.7" stop-color="#F04AE0"/>
      <stop offset="0.85" stop-color="#EE39F1"/>
      <stop offset="1" stop-color="#c026d3"/>
    </linearGradient>

    <linearGradient id="em-warm" x1="0" y1="0.2" x2="1" y2="0.8">
      <stop offset="0" stop-color="#FFFDCE" stop-opacity="0.6"/>
      <stop offset="0.3" stop-color="#ffb347" stop-opacity="0.4"/>
      <stop offset="0.6" stop-color="#FF6D00" stop-opacity="0.15"/>
      <stop offset="1" stop-color="#FF6D00" stop-opacity="0"/>
    </linearGradient>

    <linearGradient id="em-cool" x1="1" y1="0.3" x2="0" y2="0.9">
      <stop offset="0" stop-color="#EE39F1" stop-opacity="0"/>
      <stop offset="0.5" stop-color="#EE39F1" stop-opacity="0.2"/>
      <stop offset="0.8" stop-color="#c026d3" stop-opacity="0.35"/>
      <stop offset="1" stop-color="#7c3aed" stop-opacity="0.15"/>
    </linearGradient>

    <linearGradient id="em-pink-fade" x1="0.7" y1="0.3" x2="0.4" y2="0.9">
      <stop offset="0" stop-color="#EE39F1" stop-opacity="0.6"/>
      <stop offset="0.6" stop-color="#EE39F1" stop-opacity="0"/>
    </linearGradient>

    <linearGradient id="em-orange-fade" x1="0.1" y1="0.4" x2="0.6" y2="0.7">
      <stop offset="0" stop-color="#FF7527" stop-opacity="0.5"/>
      <stop offset="0.25" stop-color="#FF7527" stop-opacity="0"/>
    </linearGradient>
  </defs>

  <g transform="translate(300, 300) scale(2.8) translate(-133.99, -117)">
    <!-- Accent lines -->
    <path d="M152.07 107.88L114.21 175" stroke="url(#em-pink-fade)" stroke-width="1.2" stroke-linecap="round"/>
    <path d="M60 94.98L134 150.91" stroke="url(#em-orange-fade)" stroke-width="1.2" stroke-linecap="round"/>

    <!-- Warm layer -->
    <g stroke="url(#em-warm)" stroke-width="0.8" stroke-linecap="round" stroke-linejoin="round" fill="none" opacity="0.7">
      <path d="M177.02 64C175.01 66.28 166.43 71.94 148.2 76.29C125.42 81.74 70.71 93.16 74.85 106.15C79 119.15 82.79 125.47 86.24 129.51C89.69 133.55 107.13 145.14 109.71 147.6C112.3 150.06 125.42 157.79 114.55 175"/>
      <path d="M176.97 64.09C175.87 65.43 173.03 67.87 168.33 70.18C163.58 72.52 156 75.22 146.81 77.52C124.48 82.95 71.49 94.09 75.56 106.69C79.63 119.29 84.31 126.02 87.72 130C91.15 134 107.98 145.28 110.34 147.91C112.7 150.53 125.2 158.07 114.69 174.76"/>
      <path d="M176.85 64.26C175.59 66.02 172.35 69.37 167.61 71.79C162.72 74.32 153.36 77.43 144.03 79.96C122.6 85.39 73.04 95.97 76.97 107.77C80.89 119.57 87.36 127.12 90.67 130.97C94.06 134.91 109.7 145.57 111.59 148.51C113.48 151.46 124.77 158.64 114.97 174.29"/>
    </g>

    <!-- Main gradient mesh strokes -->
    <g stroke="url(#em-main)" stroke-width="0.55" stroke-linecap="round" stroke-linejoin="round" fill="none">
      <path d="M177.02 64C175.01 66.28 166.43 71.94 148.2 76.29C125.42 81.74 70.71 93.16 74.85 106.15C79 119.15 82.79 125.47 86.24 129.51C89.69 133.55 107.13 145.14 109.71 147.6C112.3 150.06 125.42 157.79 114.55 175"/>
      <path d="M175.64 66.28C172.42 72.72 164.67 86.55 159.42 90.34C152.86 95.09 123.18 102.82 112.13 108.08C101.08 113.35 91.07 117.57 93.32 120.2C95.56 122.84 122.49 139.75 124.73 142.16C127.66 145.32 129.56 148.83 126.11 155.51C122.66 162.18 119.9 165.17 118.34 168.85"/>
      <path d="M176.97 64.09C175.87 65.43 173.03 67.87 168.33 70.18C163.58 72.52 156 75.22 146.81 77.52C124.48 82.95 71.49 94.09 75.56 106.69C79.63 119.29 84.31 126.02 87.72 130C91.15 134 107.98 145.28 110.34 147.91C112.7 150.53 125.2 158.07 114.69 174.76"/>
      <path d="M176.91 64.18C175.73 65.72 172.69 68.62 167.97 70.98C163.15 73.42 154.68 76.32 145.42 78.74C123.54 84.17 72.27 95.03 76.26 107.23C80.26 119.43 85.83 126.57 89.19 130.48C92.6 134.46 108.84 145.43 110.97 148.21C113.09 150.99 124.99 158.36 114.83 174.53"/>
      <path d="M176.85 64.26C175.59 66.02 172.35 69.37 167.61 71.79C162.72 74.32 153.36 77.43 144.03 79.96C122.6 85.39 73.04 95.97 76.97 107.77C80.89 119.57 87.36 127.12 90.67 130.97C94.06 134.91 109.7 145.57 111.59 148.51C113.48 151.46 124.77 158.64 114.97 174.29"/>
      <path d="M176.79 64.35C175.45 66.31 172.01 70.11 167.25 72.6C162.28 75.23 152.04 78.53 142.63 81.18C121.66 86.6 73.82 96.91 77.67 108.31C81.52 119.72 88.88 127.67 92.14 131.46C95.52 135.36 110.56 145.71 112.22 148.82C113.88 151.92 124.55 158.92 115.11 174.05"/>
      <path d="M176.74 64.44C175.3 66.6 171.67 70.86 166.89 73.4C161.85 76.13 150.73 79.64 141.24 82.41C120.72 87.82 74.6 97.85 78.38 108.85C82.16 119.86 90.4 128.22 93.62 131.94C96.97 135.81 111.42 145.85 112.85 149.12C114.27 152.39 124.34 159.21 115.25 173.82"/>
      <path d="M176.68 64.53C175.16 66.89 171.33 71.61 166.53 74.21C161.41 77.03 149.41 80.74 139.85 83.63C119.78 89.03 75.38 98.79 79.09 109.39C82.79 120 91.93 128.77 95.1 132.43C98.43 136.27 112.28 145.99 113.47 149.43C114.67 152.86 124.12 159.49 115.4 173.58"/>
      <path d="M176.62 64.61C175.02 67.18 171 72.36 166.17 75.02C160.98 77.93 148.09 81.84 138.46 84.85C118.84 90.25 76.16 99.73 79.79 109.94C83.42 120.14 93.45 129.32 96.57 132.92C99.89 136.72 113.14 146.14 114.1 149.73C115.06 153.32 123.9 159.77 115.54 173.35"/>
      <path d="M176.56 64.7C174.88 67.47 170.66 73.1 165.8 75.82C160.55 78.84 146.78 82.95 137.07 86.08C117.9 91.47 76.94 100.67 80.5 110.48C84.06 120.28 94.97 129.86 98.05 133.4C101.34 137.17 113.99 146.28 114.72 150.03C115.45 153.79 123.69 160.06 115.68 173.11"/>
      <path d="M176.51 64.79C174.73 67.77 170.32 73.85 165.44 76.63C160.12 79.74 145.46 84.05 135.68 87.3C116.96 92.68 77.72 101.61 81.21 111.02C84.69 120.43 96.5 130.41 99.53 133.89C102.8 137.62 114.85 146.42 115.35 150.34C115.85 154.25 123.47 160.34 115.82 172.87"/>
      <path d="M176.45 64.88C174.59 68.06 169.98 74.6 165.08 77.44C159.68 80.64 144.14 85.15 134.29 88.52C116.02 93.9 78.5 102.55 81.91 111.56C85.32 120.57 98.02 130.96 101 134.38C104.26 138.08 115.71 146.56 115.98 150.64C116.24 154.72 123.25 160.62 115.97 172.64"/>
      <path d="M176.39 64.97C174.45 68.35 169.64 75.34 164.72 78.24C159.25 81.54 142.83 86.26 132.9 89.74C115.08 95.11 79.28 103.48 82.62 112.1C85.96 120.71 99.54 131.51 102.48 134.86C105.71 138.53 116.57 146.7 116.61 150.95C116.64 155.19 123.04 160.91 116.11 172.4"/>
      <path d="M176.34 65.05C174.31 68.64 169.3 76.09 164.36 79.05C158.82 82.45 141.51 87.36 131.51 90.97C114.14 96.33 80.06 104.42 83.33 112.64C86.59 120.85 101.07 132.06 103.96 135.35C107.17 138.98 117.43 146.85 117.23 151.25C117.03 155.65 122.82 161.19 116.25 172.16"/>
      <path d="M176.28 65.14C174.17 68.93 168.97 76.84 164.01 79.86C158.39 83.35 140.19 88.47 130.11 92.19C113.2 97.55 80.84 105.36 84.03 113.18C87.23 121 102.59 132.61 105.44 135.83C108.63 139.43 118.29 146.99 117.86 151.55C117.43 156.12 122.61 161.48 116.39 171.93"/>
      <path d="M176.23 65.23C174.03 69.22 168.63 77.59 163.65 80.66C157.96 84.25 138.88 89.57 128.73 93.41C112.26 98.76 81.62 106.3 84.74 113.72C87.86 121.13 104.12 133.16 106.91 136.32C110.09 139.89 119.15 147.13 118.49 151.86C117.83 156.59 122.39 161.76 116.54 171.69"/>
      <path d="M176.17 65.32C173.89 69.52 168.29 78.33 163.29 81.47C157.53 85.16 137.56 90.67 127.34 94.63C111.33 99.98 82.4 107.24 85.45 114.26C88.5 121.28 105.64 133.71 108.39 136.81C111.54 140.34 120.02 147.27 119.12 152.16C118.22 157.05 122.18 162.04 116.68 171.45"/>
      <path d="M176.12 65.41C173.75 69.81 167.96 79.08 162.93 82.28C157.1 86.06 136.25 91.78 125.95 95.86C110.39 101.19 83.19 108.18 86.16 114.8C89.13 121.42 107.17 134.26 109.87 137.29C113 140.79 120.88 147.41 119.75 152.47C118.62 157.52 121.97 162.33 116.83 171.22"/>
      <path d="M176.06 65.49C173.61 70.1 167.62 79.83 162.57 83.08C156.67 86.96 134.94 92.88 124.56 97.08C109.45 102.41 83.97 109.12 86.87 115.34C89.77 121.56 108.69 134.81 111.35 137.78C114.46 141.24 121.74 147.55 120.38 152.77C119.02 157.98 121.75 162.61 116.97 170.98"/>
      <path d="M175.96 65.67C173.33 70.68 166.95 81.32 161.86 84.7C155.81 88.77 132.31 95.09 121.79 99.53C107.58 104.84 85.53 110.99 88.29 116.42C91.04 121.84 111.75 135.9 114.31 138.75C117.38 142.15 123.46 147.84 121.64 153.38C119.81 158.92 121.33 163.18 117.26 170.51"/>
      <path d="M175.91 65.76C173.2 70.97 166.62 82.07 161.5 85.5C155.38 89.67 131 96.19 120.4 100.75C106.65 106.06 86.32 111.93 89 116.96C91.68 121.99 113.28 136.45 115.79 139.24C118.85 142.6 124.33 147.98 122.27 153.68C120.21 159.38 121.12 163.46 117.41 170.27"/>
      <path d="M175.86 65.84C173.06 71.27 166.29 82.82 161.15 86.31C154.95 90.57 129.69 97.3 119.01 101.97C105.71 107.27 87.11 112.87 89.71 117.5C92.32 122.13 114.81 137 117.27 139.72C120.31 143.06 125.19 148.12 122.9 153.98C120.61 159.85 120.91 163.75 117.56 170.03"/>
      <path d="M175.81 65.93C172.93 71.56 165.96 83.56 160.8 87.12C154.53 91.48 128.38 98.4 117.63 103.19C104.78 108.49 87.89 113.81 90.43 118.04C92.96 122.27 116.34 137.55 118.76 140.21C121.77 143.51 126.06 148.26 123.54 154.29C121.02 160.31 120.7 164.03 117.71 169.8"/>
      <path d="M175.76 66.02C172.79 71.85 165.63 84.31 160.45 87.92C154.11 92.38 127.07 99.5 116.25 104.42C103.85 109.7 88.68 114.75 91.15 118.58C93.61 122.41 117.87 138.1 120.25 140.7C123.24 143.96 126.93 148.41 124.18 154.59C121.42 160.78 120.49 164.31 117.86 169.56"/>
      <path d="M175.72 66.11C172.67 72.14 165.3 85.06 160.1 88.73C153.69 93.28 125.77 100.61 114.87 105.64C102.92 110.92 89.48 115.69 91.87 119.12C94.26 122.55 119.41 138.65 121.74 141.18C124.71 144.41 127.8 148.55 124.82 154.9C121.83 161.25 120.29 164.6 118.02 169.33"/>
      <path d="M175.68 66.2C172.54 72.43 164.98 85.8 159.76 89.54C153.27 94.18 124.47 101.71 113.5 106.86C102 112.14 90.27 116.63 92.59 119.66C94.91 122.7 120.95 139.2 123.23 141.67C126.18 144.87 128.68 148.69 125.46 155.2C122.24 161.71 120.09 164.88 118.18 169.09"/>
    </g>

    <!-- Cool overlay -->
    <g stroke="url(#em-cool)" stroke-width="0.5" stroke-linecap="round" stroke-linejoin="round" fill="none" opacity="0.6">
      <path d="M175.86 65.84C173.06 71.27 166.29 82.82 161.15 86.31C154.95 90.57 129.69 97.3 119.01 101.97C105.71 107.27 87.11 112.87 89.71 117.5C92.32 122.13 114.81 137 117.27 139.72C120.31 143.06 125.19 148.12 122.9 153.98C120.61 159.85 120.91 163.75 117.56 170.03"/>
      <path d="M175.68 66.2C172.54 72.43 164.98 85.8 159.76 89.54C153.27 94.18 124.47 101.71 113.5 106.86C102 112.14 90.27 116.63 92.59 119.66C94.91 122.7 120.95 139.2 123.23 141.67C126.18 144.87 128.68 148.69 125.46 155.2C122.24 161.71 120.09 164.88 118.18 169.09"/>
      <path d="M177.02 64C175.01 66.28 166.43 71.94 148.2 76.29C125.42 81.74 70.71 93.16 74.85 106.15C79 119.15 82.79 125.47 86.24 129.51C89.69 133.55 107.13 145.14 109.71 147.6C112.3 150.06 125.42 157.79 114.55 175"/>
      <path d="M176.45 64.88C174.59 68.06 169.98 74.6 165.08 77.44C159.68 80.64 144.14 85.15 134.29 88.52C116.02 93.9 78.5 102.55 81.91 111.56C85.32 120.57 98.02 130.96 101 134.38C104.26 138.08 115.71 146.56 115.98 150.64C116.24 154.72 123.25 160.62 115.97 172.64"/>
    </g>
  </g>
</svg>
